<svg xmlns="http://www.w3.org/2000/svg" width="20" height="12" viewBox="0 0 20 12">
    <g fill="none" fill-rule="evenodd">
        <g>
            <g transform="translate(-1518 -34) translate(1518 34)">
                <rect width="20" height="12" fill="#FF365E" rx="6"/>
                <path fill="#FFF" fill-rule="nonzero" d="M7.278 9c1.646 0 2.779-1.148 2.779-3.023C10.057 4.102 8.924 3 7.278 3 5.633 3 4.5 4.094 4.5 5.977 4.5 7.852 5.633 9 7.278 9zm0-1c-.923 0-1.51-.79-1.51-2.023 0-1.243.587-1.985 1.51-1.985.924 0 1.511.742 1.511 1.985C8.79 7.21 8.202 8 7.28 8zm4.646.89V6.57c0-.664-.092-1.39-.15-2.015h.041l.63 1.242L14.24 8.89H15.5V3.109h-1.175v2.305c0 .656.092 1.422.16 2.024h-.043l-.62-1.25-1.805-3.079h-1.268v5.782h1.175z"/>
            </g>
        </g>
    </g>
</svg>
